<svg width="120" height="120" viewBox="0 0 120 120" fill="none" xmlns="http://www.w3.org/2000/svg">
<ellipse cx="63.6" cy="59.878" rx="49.2" ry="50.0647" fill="url(#paint0_linear_10_14)"/>
<path d="M102.425 50.7918C107.933 74.0939 94.1513 97.0584 72.1985 102.432C50.2456 107.805 27.708 93.7306 22.1997 70.4284C16.6914 47.1263 30.4735 24.1618 52.4263 18.7884C74.3792 13.4151 96.9168 27.4897 102.425 50.7918Z" stroke="url(#paint1_linear_10_14)" stroke-width="12.8"/>
<path d="M49.1467 0.258927C50.981 -0.589085 53.099 0.757025 52.9591 2.68192L49.3606 52.2097C49.1733 54.7882 45.4788 55.4438 44.3139 53.1054L33.1063 30.6051C32.7009 29.7911 31.8649 29.2449 30.9157 29.1738L2.44551 27.0418C-0.245268 26.8403 -0.935335 23.4128 1.4892 22.2919L49.1467 0.258927Z" fill="url(#paint2_linear_10_14)"/>
<g filter="url(#filter0_d_10_14)">
<path d="M69.0667 58.6433C71.4134 59.0644 73.28 60.2129 74.6667 62.0887C76.0889 63.9646 76.8 66.2806 76.8 69.037C76.8 70.7596 76.4978 72.3292 75.8934 73.7457C75.3245 75.2004 74.4889 76.4254 73.3867 77.4207C72.32 78.4544 71.0223 79.2391 69.4934 79.7751C68 80.3493 66.3289 80.6364 64.48 80.6364C61.7778 80.6364 59.4134 80.0431 57.3867 78.8563C55.36 77.7079 53.8312 76.1 52.8 74.0328L55.3067 71.5636C56.0534 73.248 57.1912 74.5879 58.72 75.5832C60.2489 76.5785 62.1689 77.0762 64.48 77.0762C67.1467 77.0762 69.2445 76.368 70.7734 74.9515C72.3023 73.5734 73.0667 71.5827 73.0667 68.9795C73.0667 66.3381 72.2667 64.2517 70.6667 62.7204C69.0667 61.1891 66.7556 60.4235 63.7334 60.4235H62.4V57.0929H63.84C66.5778 57.0929 68.6756 56.423 70.1334 55.0831C71.5912 53.7049 72.32 51.9248 72.32 49.7427C72.32 48.5943 72.1245 47.5798 71.7334 46.6993C71.3423 45.8188 70.7912 45.0915 70.08 44.5172C69.4045 43.9047 68.5867 43.4453 67.6267 43.1391C66.7023 42.8328 65.6889 42.6797 64.5867 42.6797C62.56 42.6797 60.7645 43.1774 59.2 44.1727C57.6712 45.1297 56.5156 46.4696 55.7334 48.1923L53.3867 45.7805C53.8134 44.7852 54.4178 43.8856 55.2 43.0816C55.9823 42.2394 56.8712 41.5312 57.8667 40.957C58.8623 40.3828 59.9645 39.9425 61.1734 39.6363C62.3823 39.2917 63.6267 39.1194 64.9067 39.1194C66.5423 39.1194 68.0356 39.3683 69.3867 39.8659C70.7734 40.3636 71.9645 41.0718 72.96 41.9906C73.9556 42.8711 74.72 43.943 75.2534 45.2063C75.8223 46.4696 76.1067 47.8669 76.1067 49.3982C76.1067 50.5467 75.9467 51.6569 75.6267 52.7288C75.3067 53.7624 74.8445 54.7003 74.24 55.5425C73.6356 56.3464 72.8889 57.0355 72 57.6097C71.1467 58.1457 70.1689 58.4902 69.0667 58.6433Z" fill="white"/>
</g>
<defs>
<filter id="filter0_d_10_14" x="52.8" y="39.1194" width="24" height="41.517" filterUnits="userSpaceOnUse" color-interpolation-filters="sRGB">
<feFlood flood-opacity="0" result="BackgroundImageFix"/>
<feColorMatrix in="SourceAlpha" type="matrix" values="0 0 0 0 0 0 0 0 0 0 0 0 0 0 0 0 0 0 127 0" result="hardAlpha"/>
<feOffset/>
<feColorMatrix type="matrix" values="0 0 0 0 1 0 0 0 0 1 0 0 0 0 1 0 0 0 1 0"/>
<feBlend mode="normal" in2="BackgroundImageFix" result="effect1_dropShadow_10_14"/>
<feBlend mode="normal" in="SourceGraphic" in2="effect1_dropShadow_10_14" result="shape"/>
</filter>
<linearGradient id="paint0_linear_10_14" x1="63.6" y1="9.81329" x2="131.152" y2="69.8325" gradientUnits="userSpaceOnUse">
<stop stop-color="#5C6ABF"/>
<stop offset="0.809382" stop-color="#56295A"/>
</linearGradient>
<linearGradient id="paint1_linear_10_14" x1="20.775" y1="32.4147" x2="54.7853" y2="29.0301" gradientUnits="userSpaceOnUse">
<stop offset="0.152408" stop-color="#FDBF00"/>
<stop offset="1" stop-opacity="0"/>
</linearGradient>
<linearGradient id="paint2_linear_10_14" x1="43.9691" y1="7.56532" x2="3.882" y2="70.6395" gradientUnits="userSpaceOnUse">
<stop stop-color="#FFDA2D"/>
<stop offset="0.416667" stop-color="#F59B0C"/>
</linearGradient>
</defs>
</svg>
