<svg width="144" height="46" viewBox="0 0 144 46" fill="none" xmlns="http://www.w3.org/2000/svg">
<path d="M108.728 20.9629C110.361 21.2508 111.659 22.036 112.624 23.3186C113.614 24.6011 114.108 26.1847 114.108 28.0692C114.108 29.247 113.898 30.3202 113.477 31.2886C113.082 32.2833 112.5 33.1208 111.734 33.8014C110.991 34.5081 110.088 35.0446 109.025 35.4111C107.986 35.8037 106.823 36 105.537 36C103.657 36 102.012 35.5943 100.602 34.7829C99.1917 33.9977 98.128 32.8984 97.4106 31.4849L99.1546 29.7967C99.6741 30.9484 100.466 31.8645 101.529 32.545C102.593 33.2255 103.929 33.5658 105.537 33.5658C107.392 33.5658 108.852 33.0816 109.915 32.1131C110.979 31.1709 111.511 29.8098 111.511 28.0299C111.511 26.2239 110.954 24.7974 109.841 23.7504C108.728 22.7035 107.12 22.18 105.017 22.18H104.09V19.9028H105.092C106.996 19.9028 108.456 19.4448 109.47 18.5287C110.484 17.5864 110.991 16.3693 110.991 14.8774C110.991 14.0921 110.855 13.3985 110.583 12.7965C110.311 12.1945 109.928 11.6972 109.433 11.3046C108.963 10.8858 108.394 10.5717 107.726 10.3623C107.083 10.1529 106.378 10.0482 105.611 10.0482C104.201 10.0482 102.952 10.3885 101.863 11.069C100.8 11.7234 99.9957 12.6395 99.4515 13.8173L97.8188 12.1683C98.1157 11.4878 98.5362 10.8727 99.0804 10.3231C99.6246 9.74722 100.243 9.26299 100.936 8.87038C101.628 8.47776 102.395 8.17676 103.236 7.96737C104.077 7.7318 104.943 7.61401 105.834 7.61401C106.972 7.61401 108.011 7.78415 108.951 8.12441C109.915 8.46468 110.744 8.9489 111.437 9.57708C112.129 10.1791 112.661 10.912 113.032 11.7757C113.428 12.6395 113.626 13.5948 113.626 14.6418C113.626 15.427 113.515 16.1861 113.292 16.919C113.069 17.6257 112.748 18.2669 112.327 18.8428C111.907 19.3924 111.387 19.8636 110.769 20.2562C110.175 20.6226 109.495 20.8582 108.728 20.9629Z" fill="url(#paint0_linear_212_7657)"/>
<path d="M130.811 29.3618C131.385 29.3618 131.894 29.4948 132.338 29.7609C132.782 30.027 133.121 30.4012 133.356 30.8835C133.6 31.3658 133.721 31.9313 133.721 32.5799C133.721 33.2285 133.6 33.8023 133.356 34.3012C133.112 34.7919 132.769 35.1744 132.325 35.4488C131.89 35.7149 131.385 35.8479 130.811 35.8479C130.271 35.8479 129.806 35.7357 129.414 35.5112C129.031 35.2866 128.744 34.9623 128.553 34.5382V35.7606H127.757V26.5802H128.54V30.684C128.731 30.2515 129.023 29.9231 129.414 29.6986C129.806 29.474 130.271 29.3618 130.811 29.3618ZM130.719 35.1744C131.398 35.1744 131.929 34.9457 132.312 34.4883C132.695 34.031 132.886 33.3948 132.886 32.5799C132.886 31.7733 132.695 31.1455 132.312 30.6964C131.929 30.2474 131.394 30.0229 130.706 30.0229C130.019 30.0229 129.488 30.2474 129.114 30.6964C128.74 31.1455 128.553 31.7816 128.553 32.6049C128.553 33.4281 128.74 34.0642 129.114 34.5133C129.488 34.954 130.023 35.1744 130.719 35.1744Z" fill="black"/>
<path d="M143.562 29.5115L140.481 36.4092C140.177 37.0911 139.794 37.5901 139.333 37.9061C138.88 38.2304 138.31 38.459 137.623 38.5921L137.466 37.9934C138.093 37.852 138.563 37.6691 138.876 37.4445C139.198 37.22 139.468 36.8666 139.685 36.3843L139.959 35.7731L137.166 29.5115H138.015L140.377 34.9998L142.752 29.5115H143.562Z" fill="black"/>
<circle cx="120.17" cy="35.4312" r="0.632205" fill="black"/>
<path d="M84.2254 35.684C83.1128 35.684 82.1265 35.4058 81.2667 34.8495C80.4238 34.2763 79.741 33.5598 79.2184 32.7V40.8175H77.4988V22.256H79.0414V24.8101C79.5808 23.984 80.2805 23.3181 81.1403 22.8123C82.0001 22.2897 82.9357 22.0284 83.9473 22.0284C84.8576 22.0284 85.6922 22.2223 86.4508 22.61C87.2094 22.9809 87.8669 23.4867 88.4233 24.1273C88.9796 24.7511 89.4095 25.476 89.713 26.3021C90.0333 27.1282 90.1935 27.9795 90.1935 28.8562C90.1935 29.7834 90.0502 30.6601 89.7636 31.4862C89.477 32.3123 89.0639 33.0372 88.5244 33.661C88.0018 34.2847 87.3696 34.7821 86.6278 35.153C85.9029 35.507 85.1021 35.684 84.2254 35.684ZM83.745 34.1667C84.453 34.1667 85.0937 34.015 85.6669 33.7115C86.2569 33.4081 86.7543 33.0119 87.1589 32.523C87.5803 32.0172 87.9007 31.4525 88.1198 30.8287C88.339 30.188 88.4486 29.5305 88.4486 28.8562C88.4486 28.1481 88.3221 27.4738 88.0692 26.8331C87.8164 26.1925 87.4708 25.6277 87.0324 25.1388C86.5941 24.6499 86.0715 24.2622 85.4646 23.9756C84.8745 23.689 84.2339 23.5457 83.5427 23.5457C83.1043 23.5457 82.6407 23.6384 82.1518 23.8238C81.6798 23.9924 81.233 24.2285 80.8115 24.5319C80.4069 24.8185 80.0529 25.1641 79.7494 25.5687C79.4628 25.9565 79.2858 26.3695 79.2184 26.8079V30.854C79.4207 31.326 79.6736 31.7643 79.977 32.169C80.2973 32.5736 80.6514 32.9276 81.0391 33.2311C81.4437 33.5177 81.8736 33.7452 82.3288 33.9138C82.784 34.0824 83.2561 34.1667 83.745 34.1667Z" fill="black"/>
<path d="M55.9829 35.684C55.0219 35.684 54.1452 35.507 53.3529 35.153C52.5605 34.7821 51.8693 34.2847 51.2792 33.661C50.706 33.0372 50.2593 32.3123 49.939 31.4862C49.6187 30.6601 49.4585 29.7919 49.4585 28.8815C49.4585 27.9543 49.6187 27.0776 49.939 26.2515C50.2761 25.4254 50.7313 24.7005 51.3045 24.0767C51.8946 23.453 52.5858 22.9556 53.3782 22.5847C54.1705 22.2138 55.0388 22.0284 55.9829 22.0284C56.9269 22.0284 57.7952 22.2138 58.5875 22.5847C59.3968 22.9556 60.088 23.453 60.6612 24.0767C61.2512 24.7005 61.7064 25.4254 62.0267 26.2515C62.3639 27.0776 62.5325 27.9543 62.5325 28.8815C62.5325 29.7919 62.3723 30.6601 62.052 31.4862C61.7317 32.3123 61.2765 33.0372 60.6865 33.661C60.1133 34.2847 59.422 34.7821 58.6128 35.153C57.8205 35.507 56.9438 35.684 55.9829 35.684ZM51.2034 28.9068C51.2034 29.6486 51.3298 30.3398 51.5827 30.9804C51.8356 31.6042 52.1728 32.1605 52.5942 32.6494C53.0326 33.1215 53.5383 33.4924 54.1115 33.7621C54.7016 34.0319 55.3254 34.1667 55.9829 34.1667C56.6403 34.1667 57.2557 34.0319 57.8289 33.7621C58.419 33.4755 58.9331 33.0962 59.3715 32.6241C59.8098 32.1352 60.1554 31.5705 60.4083 30.9298C60.6612 30.2892 60.7876 29.598 60.7876 28.8562C60.7876 28.1313 60.6612 27.4485 60.4083 26.8079C60.1554 26.1504 59.8098 25.5856 59.3715 25.1135C58.9331 24.6246 58.419 24.2453 57.8289 23.9756C57.2557 23.689 56.6403 23.5457 55.9829 23.5457C55.3254 23.5457 54.71 23.689 54.1368 23.9756C53.5636 24.2453 53.0579 24.6246 52.6195 25.1135C52.1812 25.6024 51.8356 26.1756 51.5827 26.8331C51.3298 27.4738 51.2034 28.165 51.2034 28.9068Z" fill="black"/>
<path d="M29.7537 34.799C29.6525 34.8496 29.5008 34.917 29.2985 35.0013C29.1131 35.0856 28.8939 35.1699 28.641 35.2542C28.3881 35.3385 28.1015 35.4143 27.7812 35.4818C27.4609 35.5492 27.1237 35.5829 26.7697 35.5829C26.3988 35.5829 26.0448 35.5323 25.7076 35.4312C25.3704 35.33 25.0754 35.1783 24.8225 34.976C24.5696 34.7568 24.3673 34.4871 24.2156 34.1668C24.0639 33.8465 23.988 33.4756 23.988 33.0541V23.6216H22.1672V22.256H23.988V17.8053H25.7076V22.256H28.7422V23.6216H25.7076V32.5736C25.7413 33.0625 25.9099 33.425 26.2133 33.661C26.5337 33.8802 26.8961 33.9898 27.3007 33.9898C27.7896 33.9898 28.2195 33.9139 28.5904 33.7622C28.9613 33.5936 29.1974 33.4756 29.2985 33.4081L29.7537 34.799Z" fill="black"/>
<path d="M5.92604 35.4313L0.564941 22.2561H2.33512L6.8617 33.8381L11.4136 22.2561H13.0826L7.7215 35.4313H5.92604Z" fill="black"/>
<path fill-rule="evenodd" clip-rule="evenodd" d="M42.2223 18.7989C42.6324 19.0604 42.7529 19.6048 42.4914 20.0149C40.933 22.459 40.0298 25.3611 40.0298 28.4769C40.0298 37.1819 47.0867 44.2387 55.7917 44.2387C63.6817 44.2387 70.2191 38.4406 71.3727 30.873C71.446 30.3922 71.8952 30.0618 72.376 30.1351C72.8568 30.2084 73.1872 30.6576 73.1139 31.1384C71.8311 39.5533 64.565 46 55.7917 46C46.1139 46 38.2686 38.1546 38.2686 28.4769C38.2686 25.0158 39.2729 21.7866 41.0063 19.068C41.2678 18.6579 41.8122 18.5374 42.2223 18.7989Z" fill="url(#paint1_linear_212_7657)"/>
<path d="M46.2737 12.2207C46.6797 12.0221 47.1484 12.3374 47.1175 12.7883L46.3211 24.3896C46.2796 24.9935 45.4619 25.1471 45.2041 24.5994L42.7237 19.3289C42.634 19.1383 42.449 19.0103 42.2389 18.9937L35.938 18.4943C35.3424 18.4471 35.1897 17.6442 35.7263 17.3817L46.2737 12.2207Z" fill="url(#paint2_linear_212_7657)"/>
<path d="M52.6688 6.52432C52.6198 6.22721 52.8171 5.94229 53.1099 5.88728L56.2883 5.29017C56.5811 5.23517 56.8576 5.43107 56.9067 5.72818C56.9557 6.02529 56.7584 6.31022 56.4656 6.36523L53.2872 6.96233C52.9944 7.01734 52.7178 6.82143 52.6688 6.52432Z" fill="#5C6ABF"/>
<path d="M51.5765 4.80064C51.3323 4.63809 51.2764 4.29722 51.4542 4.05502L53.3192 1.36382C53.4865 1.12358 53.8242 1.05983 54.0684 1.22238C54.3039 1.39754 54.3598 1.73841 54.1925 1.97865L52.3152 4.6612C52.1496 4.91213 51.8119 4.97587 51.5765 4.80064Z" fill="#5C6ABF"/>
<path d="M44.3239 3.0361C44.4959 2.78916 44.8298 2.72613 45.07 2.89527L47.6792 4.7326C47.9194 4.90173 47.9746 5.2388 47.8027 5.48574C47.6307 5.73268 47.2968 5.79571 47.0566 5.62658L44.4474 3.78924C44.2072 3.62011 44.1519 3.28307 44.3239 3.0361Z" fill="#5C6ABF"/>
<path d="M52.2177 8.52819C52.3897 8.28125 52.7236 8.21822 52.9638 8.38735L55.573 10.2247C55.8132 10.3938 55.8685 10.7309 55.6965 10.9778C55.5246 11.2248 55.1907 11.2878 54.9505 11.1187L52.3412 9.28134C52.101 9.1122 52.0458 8.77517 52.2177 8.52819Z" fill="#5C6ABF"/>
<path d="M48.9468 3.9326L48.4216 0.749407C48.3732 0.456165 48.5678 0.174975 48.8566 0.120722C49.1455 0.0664685 49.4184 0.259857 49.4668 0.553099L49.9921 3.73629C50.0405 4.02953 49.8459 4.31072 49.557 4.36497C49.2681 4.41923 48.9952 4.22584 48.9468 3.9326Z" fill="#5C6ABF"/>
<path d="M54.071 1.22891L51.5757 4.79476C51.3305 4.63245 51.2741 4.2925 51.4522 4.05115L53.3197 1.36927C53.4873 1.12986 53.8259 1.0666 54.071 1.22891Z" fill="#5C6ABF"/>
<defs>
<linearGradient id="paint0_linear_212_7657" x1="105.759" y1="7.61401" x2="105.759" y2="36" gradientUnits="userSpaceOnUse">
<stop stop-color="#56295A"/>
<stop offset="1" stop-color="#5C6ABF"/>
</linearGradient>
<linearGradient id="paint1_linear_212_7657" x1="38.8565" y1="26.8964" x2="68.254" y2="9.19461" gradientUnits="userSpaceOnUse">
<stop/>
<stop offset="0.807292" stop-color="#3D3D3D" stop-opacity="0"/>
</linearGradient>
<linearGradient id="paint2_linear_212_7657" x1="45.1278" y1="13.9322" x2="35.5219" y2="28.2128" gradientUnits="userSpaceOnUse">
<stop stop-color="#5C6ABF"/>
<stop offset="1" stop-color="#56295A"/>
</linearGradient>
</defs>
</svg>
